# xmcd
#
# Track frame offsets: 
#        150
#        9590
#        22053
#        37623
#        57088
#        68653
#        82752
#        100865
#        112808
#        122479
#        134259
#        142285
#        153843
#        163689
#        178234
#        195276
#        209127
#        226134
#        238056
#        259085
#        271499
#        285098
#        304362
#        314418
#
# Disc length: 4413 seconds
#
# Revision: 1
# Processed by: cddbd v1.5.2PL0 Copyright (c) Steve Scherf et al.
# Submitted via: ExactAudioCopy v0.99pb3
#
DISCID=44113b18
DTITLE=Country Beat Jiriho Brabce - Zlate hity CD1
DYEAR=2005
DGENRE=Country
TTITLE0=Drahy muj
TTITLE1=Haj modrinu
TTITLE2=Blizard
TTITLE3=Po pulnoci
TTITLE4=Ja zahadou se trapim
TTITLE5=Cekej tise
TTITLE6=Sto let
TTITLE7=Vzdalene bubny
TTITLE8=Together Again
TTITLE9=Sve banjo odhazuji v dal
TTITLE10=Povidam, bud zticha
TTITLE11=Je to zle
TTITLE12=Pulnoc je obdobi zle
TTITLE13=Vinen
TTITLE14=Muj vlak vysnenej
TTITLE15=Vstava den a modre svita
TTITLE16=On
TTITLE17=Tobe nalezel cas
TTITLE18=Shane
TTITLE19=Jackson
TTITLE20=Lod uz vyplouva
TTITLE21=Tata prijde kazdou vterinou
TTITLE22=Chodim jen tak bosy
TTITLE23=Zavidim
EXTD=
EXTT0=
EXTT1=
EXTT2=
EXTT3=
EXTT4=
EXTT5=
EXTT6=
EXTT7=
EXTT8=
EXTT9=
EXTT10=
EXTT11=
EXTT12=
EXTT13=
EXTT14=
EXTT15=
EXTT16=
EXTT17=
EXTT18=
EXTT19=
EXTT20=
EXTT21=
EXTT22=
EXTT23=
PLAYORDER=
